# xmcd CD database file
#
# Track frame offsets:
#	150
#	38752
#	58735
#	78485
#	89167
#	105885
#	125675
#	141755
#	167372
#	190580
#	209110
#	229712
#	243100
#	255787
#	279985
#	299430
#	314150
#	330950
#
# Disc length: 4560 seconds
#
# Revision: 0
# Processed by: cddbd v1.5PL3 Copyright (c) Steve Scherf et al.
# Submitted via: CDex 1.51
#
DISCID=fa11ce12
DTITLE=Various Artist - NATURAL WEDDING kiss series SUGAR
DYEAR=1900
DGENRE=New Age
TTITLE0=BLOW YOUR MIND - JAMIROQUAI
TTITLE1=MY TIME HAS COME - DESTINY'S CHILD
TTITLE2=MAKING HISTORY - JANET KAY
TTITLE3=BLOWIN'AWAY - LAURA NYRO
TTITLE4=BEST OF MY LOVE - THE EMOTIONS
TTITLE5=DANS MA VIE - CLEMENTINE
TTITLE6=BEAUTIFUL GIRL - MEJA
TTITLE7=FOR THE LOVE OF YOU - THE ISLEY BROTHERS
TTITLE8=BE EVER WONDERFUL - EARTH, WIND and FIRE
TTITLE9=WHAT'S YOUR SIGN? - DES'REE
TTITLE10=HAPPY - LAURNEA
TTITLE11=OOH CHILD - VALERIE CARTER
TTITLE12=WHOEVER YOU ARE - PREFAB SPROUT
TTITLE13=YEARNING /BASIA
TTITLE14=TENDERNESS - DIANA KING
TTITLE15=FREE AT LAST - JIMMY RAY
TTITLE16=SHE'S ELECTRIC - OASIS
TTITLE17=THE HAWAIIAN WEDDING SONG - ANDY WILLIAMS
EXTD=
EXTT0=
EXTT1=
EXTT2=
EXTT3=
EXTT4=
EXTT5=
EXTT6=
EXTT7=
EXTT8=
EXTT9=
EXTT10=
EXTT11=
EXTT12=
EXTT13=
EXTT14=
EXTT15=
EXTT16=
EXTT17=
PLAYORDER=
